<?xml version="1.0" encoding="utf-8"?>
<!-- Designed by Vexels.com - 2016 All Rights Reserved - https://vexels.com/terms-and-conditions/  -->

<svg version="1.1" id="Layer_1" xmlns="http://www.w3.org/2000/svg" xmlns:xlink="http://www.w3.org/1999/xlink" x="0px" y="0px"
	 width="1200px" height="1200px" viewBox="0 0 1200 1200" enable-background="new 0 0 1200 1200" xml:space="preserve">
<g>
	<g>
		<g>
			<g>
				<g>
					<polygon fill="#43BAC3" points="58.466,852.988 50.725,846.932 240.24,650.139 247.99,656.234 					"/>
				</g>
				<g>
					<polygon fill="#43BAC3" points="376.288,768.118 240.621,656.675 247.549,649.733 383.191,761.219 					"/>
				</g>
				<g>
					<polygon fill="#43BAC3" points="384.063,767.163 375.398,762.131 479.136,614.969 487.801,620.002 					"/>
				</g>
				<g>
					<polygon fill="#43BAC3" points="564.558,631.82 482.781,622.131 484.129,612.888 565.88,622.611 					"/>
				</g>
				<g>
					<polygon fill="#43BAC3" points="569.189,630.244 561.328,624.217 688.96,488.144 696.813,494.162 					"/>
				</g>
				<g>
					<polygon fill="#43BAC3" points="791.973,693.01 688.226,493.137 697.556,489.172 801.294,689.083 					"/>
				</g>
				<g>
					<polygon fill="#43BAC3" points="800.749,693.9 792.482,688.237 1055.826,371.047 1064.05,376.67 					"/>
				</g>
				<polyline fill="#43BAC3" points="1030.945,359.262 1075.757,352.028 1083.773,392.592 				"/>
			</g>
			<path fill="#43BAC3" d="M257.691,656.411c0,9.438-7.594,17.075-17.07,17.075c-9.399,0-16.993-7.637-16.993-17.075
				c0-9.39,7.594-17.032,16.993-17.032C250.097,639.379,257.691,647.021,257.691,656.411z"/>
			<path fill="#43BAC3" d="M396.762,761.362c0,9.43-7.619,17.032-17.062,17.032c-9.434,0-17.027-7.602-17.027-17.032
				c0-9.39,7.594-17.062,17.027-17.062C389.143,744.3,396.762,751.971,396.762,761.362z"/>
			<path fill="#43BAC3" d="M502.228,617.578c0,9.473-7.628,17.071-17.071,17.071c-9.425,0-17.019-7.598-17.019-17.071
				c0-9.399,7.594-17.032,17.019-17.032C494.6,600.546,502.228,608.179,502.228,617.578z"/>
			<path fill="#43BAC3" d="M582.985,628.118c0,9.421-7.671,17.066-17.105,17.066c-9.39,0-16.984-7.645-16.984-17.066
				c0-9.404,7.594-17.035,16.984-17.035C575.314,611.082,582.985,618.714,582.985,628.118z"/>
			<path fill="#43BAC3" d="M708.243,492.96c0,9.39-7.611,17.062-17.036,17.062c-9.408,0-17.036-7.672-17.036-17.062
				c0-9.399,7.628-17.032,17.036-17.032C700.632,475.928,708.243,483.561,708.243,492.96z"/>
			<path fill="#43BAC3" d="M811.281,689.235c0,9.352-7.672,17.032-17.08,17.032c-9.39,0-17.027-7.68-17.027-17.032
				c0-9.477,7.637-17.071,17.027-17.071C803.609,672.164,811.281,679.758,811.281,689.235z"/>
		</g>
	</g>
	<g>
		<g>
			<g>
				<g>
					<polygon fill="#F7A81A" points="56.47,889.207 50,881.803 273.121,724.128 279.591,731.571 					"/>
				</g>
				<g>
					<polygon fill="#F7A81A" points="384.573,865.57 272.256,730.62 280.377,725.113 392.641,860.098 					"/>
				</g>
				<g>
					<polygon fill="#F7A81A" points="392.391,866.093 384.832,859.523 514.375,734.478 521.934,741.048 					"/>
				</g>
				<g>
					<polygon fill="#F7A81A" points="595.106,767.077 516.603,742.193 519.661,733.363 598.129,758.278 					"/>
				</g>
				<g>
					<polygon fill="#F7A81A" points="599.944,766.395 593.361,759.012 744.285,649.336 750.868,656.726 					"/>
				</g>
				<g>
					<polygon fill="#F7A81A" points="806.961,869.908 742.626,654.096 752.535,651.958 816.853,867.8 					"/>
				</g>
				<g>
					<polygon fill="#F7A81A" points="815.41,872.425 808.352,865.32 1126.615,603.259 1133.629,610.322 					"/>
				</g>
				<polyline fill="#F7A81A" points="1104.386,587.01 1149.767,588.327 1150,629.673 				"/>
			</g>
			<path fill="#F7A81A" d="M289.059,733.567c-1.771,9.274-10.66,15.338-19.965,13.567c-9.235-1.77-15.265-10.703-13.477-19.965
				c1.753-9.23,10.652-15.3,19.878-13.533C284.809,715.416,290.83,724.344,289.059,733.567z"/>
			<path fill="#F7A81A" d="M405.963,862.785c-1.78,9.266-10.713,15.295-19.973,13.524c-9.261-1.775-15.309-10.665-13.529-19.939
				c1.771-9.222,10.678-15.321,19.939-13.55C401.661,844.582,407.708,853.553,405.963,862.785z"/>
			<path fill="#F7A81A" d="M536.559,741.381c-1.789,9.295-10.713,15.325-19.973,13.554c-9.261-1.775-15.3-10.665-13.521-19.965
				c1.763-9.23,10.669-15.295,19.931-13.529C532.249,723.216,538.322,732.149,536.559,741.381z"/>
			<path fill="#F7A81A" d="M613.896,766.895c-1.771,9.27-10.739,15.326-20.009,13.551c-9.235-1.759-15.256-10.686-13.477-19.956
				c1.745-9.23,10.652-15.3,19.888-13.533C609.559,748.727,615.658,757.665,613.896,766.895z"/>
			<path fill="#F7A81A" d="M762.306,657.681c-1.762,9.236-10.678,15.343-19.93,13.563c-9.235-1.767-15.291-10.725-13.529-19.956
				c1.771-9.236,10.704-15.304,19.939-13.538C758.038,639.526,764.069,648.45,762.306,657.681z"/>
			<path fill="#F7A81A" d="M826.623,869.817c-1.753,9.205-10.721,15.291-19.956,13.524c-9.236-1.762-15.291-10.725-13.529-19.926
				c1.771-9.305,10.703-15.334,19.939-13.559C822.305,851.614,828.403,860.516,826.623,869.817z"/>
		</g>
	</g>
	<g>
		<g>
			<g>
				<g>
					<polygon fill="#EB672D" points="56.6,859.156 50.06,852.288 252.983,677.045 259.557,683.948 					"/>
				</g>
				<g>
					<polygon fill="#EB672D" points="366.707,808.674 252.62,683.572 259.963,677.451 374.085,802.588 					"/>
				</g>
				<g>
					<polygon fill="#EB672D" points="374.189,808.566 366.638,802.7 482.591,667.564 490.159,673.443 					"/>
				</g>
				<g>
					<polygon fill="#EB672D" points="561.077,693.382 485.157,675.028 487.55,666.001 563.461,684.389 					"/>
				</g>
				<g>
					<polygon fill="#EB672D" points="565.586,692.276 558.951,685.486 696.122,563.947 702.757,570.776 					"/>
				</g>
				<g>
					<polygon fill="#EB672D" points="767.887,778.394 694.792,568.828 704.053,565.895 777.174,775.452 					"/>
				</g>
				<g>
					<polygon fill="#EB672D" points="776.068,780.16 769.036,773.738 1056.405,486.754 1063.489,493.176 					"/>
				</g>
				<polyline fill="#EB672D" points="1034.427,472.36 1077.631,469.981 1080.119,511.094 				"/>
			</g>
			<path fill="#EB672D" d="M789.908,778.394c0,9.43-7.594,17.066-17.054,17.066c-9.374,0-17.053-7.636-17.053-17.066
				c0-9.429,7.68-17.032,17.053-17.032C782.314,761.362,789.908,768.964,789.908,778.394z"/>
			<path fill="#EB672D" d="M713.858,569.196c0,9.438-7.611,17.071-17.045,17.071c-9.39,0-17.019-7.633-17.019-17.071
				c0-9.395,7.628-17.032,17.019-17.032C706.247,552.164,713.858,559.801,713.858,569.196z"/>
			<path fill="#EB672D" d="M579.245,689.235c0,9.352-7.637,17.032-17.062,17.032c-9.399,0-17.036-7.68-17.036-17.032
				c0-9.477,7.637-17.071,17.036-17.071C571.608,672.164,579.245,679.758,579.245,689.235z"/>
			<path fill="#EB672D" d="M502.228,672.164c0,9.391-7.628,17.071-17.071,17.071c-9.425,0-17.019-7.68-17.019-17.071
				c0-9.438,7.594-17.032,17.019-17.032C494.6,655.132,502.228,662.726,502.228,672.164z"/>
			<path fill="#EB672D" d="M388.106,805.676c0,9.434-7.628,17.062-17.044,17.062c-9.391,0-17.02-7.628-17.02-17.062
				c0-9.438,7.628-17.04,17.02-17.04C380.478,788.636,388.106,796.238,388.106,805.676z"/>
			<path fill="#EB672D" d="M269.985,683.067c0,9.399-7.672,17.032-17.08,17.032c-9.425,0-17.062-7.633-17.062-17.032
				c0-9.434,7.637-17.066,17.062-17.066C262.313,666.001,269.985,673.633,269.985,683.067z"/>
		</g>
	</g>
</g>
</svg>
